<?xml version="1.0" encoding="UTF-8"?>
<svg xmlns="http://www.w3.org/2000/svg" xmlns:xlink="http://www.w3.org/1999/xlink" width="343.52pt" height="407.19pt" viewBox="0 0 343.52 407.19" version="1.1">
<defs>
<clipPath id="clip1">
  <path d="M 0 0 L 310 0 L 310 407.191406 L 0 407.191406 Z M 0 0 "/>
</clipPath>
<clipPath id="clip2">
  <path d="M 321 365 L 343.519531 365 L 343.519531 389 L 321 389 Z M 321 365 "/>
</clipPath>
</defs>
<g id="surface1">
<g clip-path="url(#clip1)" clip-rule="nonzero">
<path style=" stroke:none;fill-rule:nonzero;fill:rgb(0%,19.999695%,63.136292%);fill-opacity:1;" d="M 309.675781 357.324219 C 309.675781 370.777344 304.164063 378.582031 293.394531 382.742188 C 251.542969 398.875 201.984375 407.191406 154.839844 407.191406 C 107.695313 407.191406 58.132813 398.875 16.28125 382.742188 C 5.511719 378.582031 0 370.777344 0 357.324219 L 0 0.00390625 L 309.675781 0.00390625 L 309.675781 357.324219 "/>
</g>
<path style=" stroke:none;fill-rule:nonzero;fill:rgb(99.606323%,80.783081%,0.392151%);fill-opacity:1;" d="M 83.050781 217.757813 C 40.175781 190.976563 26.015625 179.132813 24.808594 161.566406 C 24.601563 157.992188 25.414063 151.984375 26.90625 147.6875 L 22.863281 145 C 19.632813 150.148438 17.578125 156.9375 17.578125 163.164063 C 17.578125 173.3125 20.820313 180.988281 24.804688 187.121094 C 30.832031 196.402344 37.171875 202.234375 52.777344 213.9375 C 69.597656 226.566406 81.074219 241.308594 87.691406 256.726563 L 90.074219 256.726563 L 90.074219 239.226563 C 112.816406 252.125 132.851563 264.269531 142.710938 285.96875 L 145.09375 285.96875 C 141.238281 263.484375 128.527344 246.148438 83.050781 217.757813 "/>
<path style=" stroke:none;fill-rule:nonzero;fill:rgb(99.606323%,80.783081%,0.392151%);fill-opacity:1;" d="M 208.878906 159.210938 C 199.5 163.421875 193.039063 169.132813 187.273438 177.320313 L 206.433594 176.324219 C 207.125 167.808594 208.246094 162.148438 208.878906 159.210938 M 277.960938 227.636719 C 279.886719 222.953125 281.132813 218.457031 281.464844 212.753906 L 253.464844 211.164063 C 252.195313 219.007813 250.105469 225.828125 247.878906 231.417969 Z M 247.644531 158.128906 C 249.664063 163.523438 251.175781 168.753906 252.28125 173.789063 L 268.75 172.878906 C 263.089844 166.371094 255.855469 161.253906 247.644531 158.128906 M 240.167969 174.457031 C 237.363281 164.730469 233.996094 157.960938 232.234375 154.78125 C 231.109375 154.710938 229.972656 154.679688 228.820313 154.679688 C 226.933594 154.679688 225.019531 154.925781 223.183594 155.125 C 220.457031 161.925781 218.246094 168.808594 216.433594 175.777344 Z M 253.910156 183.285156 C 254.785156 190.304688 254.878906 196.890625 254.425781 202.96875 L 281.375 201.542969 C 280.683594 195.417969 278.945313 189.617188 276.339844 184.316406 Z M 244.753906 203.472656 C 244.480469 195.804688 243.523438 188.867188 242.234375 182.746094 L 215.046875 181.507813 C 213.167969 189.792969 211.945313 197.871094 211.367188 205.242188 Z M 248.933594 145.265625 L 252.121094 140.789063 L 247.179688 134.207031 L 248.007813 132.746094 L 261.894531 140.234375 L 258.863281 149.410156 C 261.097656 150.496094 263.15625 151.855469 265.902344 153.675781 L 274.878906 138.921875 L 251.652344 126.78125 L 200.316406 126.78125 L 158.652344 151.855469 C 166.484375 157.285156 173.679688 163.167969 178.800781 169.085938 C 189.953125 152.832031 209.574219 142.472656 228.996094 142.472656 C 235.351563 142.472656 242.742188 143.144531 248.933594 145.265625 M 146.226563 143.800781 L 169.222656 130.007813 C 164.707031 127.773438 159.71875 126.34375 153.785156 126.261719 C 145.863281 126.136719 132.484375 129.792969 126.003906 130.777344 C 128.902344 132.757813 139.171875 139.324219 146.226563 143.800781 M 150.9375 91.863281 C 142.773438 90.078125 138.222656 91.085938 133.535156 95.554688 C 135.824219 96.660156 138.699219 97.257813 141.878906 97.027344 C 146.460938 96.703125 149.316406 93.953125 150.9375 91.863281 M 280.554688 286.003906 L 277.652344 286.003906 C 277.652344 269.992188 262.964844 265.640625 247.605469 265.640625 L 199.585938 265.640625 C 201.136719 273.527344 201.855469 282.765625 200.65625 291.480469 L 198.269531 291.480469 C 193.820313 255.527344 173.503906 237.703125 145.09375 218.632813 L 145.09375 235 L 142.710938 235 C 135.160156 218.113281 118.574219 202.261719 102.859375 191.015625 L 102.863281 191.015625 C 98.6875 188.035156 94.355469 184.945313 90.078125 181.894531 L 90.078125 199.539063 L 87.691406 199.539063 C 81.03125 182.039063 68.9375 168.972656 51.695313 153.421875 C 33.085938 136.648438 25.566406 126.613281 21.210938 115.078125 C 18.574219 108.089844 17.828125 102.449219 17.730469 94.773438 C 17.554688 81.050781 24.492188 68.652344 33.136719 64.023438 L 33.136719 70.660156 C 28.84375 76.34375 26.628906 83.523438 26.613281 90.828125 C 26.605469 97.5625 28.207031 105.058594 31.5625 111.445313 C 42.046875 131.417969 77.363281 155.917969 99.789063 170.960938 C 169.535156 217.75 183.445313 225.917969 195.03125 250.738281 C 196.328125 253.507813 197.609375 257.230469 198.675781 261.535156 C 208.753906 259.984375 245.308594 254.421875 252.046875 253.351563 C 253.339844 253.148438 256.027344 252.808594 257.417969 252.726563 C 263.710938 248.746094 268.640625 243.671875 272.949219 237.339844 L 246.230469 235.273438 C 244.847656 238.335938 243.472656 240.910156 242.273438 242.972656 L 240.097656 242.972656 C 240.824219 240.257813 241.460938 237.582031 242.007813 234.953125 L 235.171875 234.433594 L 235.171875 232.984375 L 242.574219 232.070313 C 243.984375 224.503906 244.664063 217.347656 244.808594 210.664063 L 211.132813 208.757813 C 210.949219 212.203125 210.921875 215.464844 211.035156 218.488281 L 208.871094 218.488281 C 208.160156 215.113281 207.601563 211.78125 207.164063 208.53125 L 199.785156 208.101563 L 199.785156 205.847656 L 206.796875 205.476563 C 205.8125 196.558594 205.753906 188.242188 206.117188 181.101563 L 186.421875 180.195313 C 187.351563 181.925781 188.316406 183.683594 188.996094 185.59375 C 193.242188 197.46875 192.234375 211.394531 190.835938 217.808594 L 188.449219 217.808594 C 188.09375 210.394531 185.601563 201.3125 183.246094 195.757813 C 177.796875 182.921875 165.578125 171.578125 145.09375 158.414063 L 145.09375 174.824219 L 142.710938 174.824219 C 135.894531 153.269531 118.941406 141.28125 93.730469 128.328125 C 72.925781 117.648438 66.457031 104.78125 67.640625 84.863281 L 74.667969 89.023438 C 76.46875 107.65625 90.773438 118.40625 105.742188 118.292969 C 114.566406 118.226563 122.824219 117.0625 130.808594 115.453125 C 142.335938 113.128906 153.003906 111.140625 161.902344 114.292969 L 161.902344 103.296875 L 154.910156 103.296875 C 152.40625 105.460938 147.335938 107.964844 139.875 108.085938 C 131.664063 108.238281 116.132813 103.507813 116.132813 86.15625 C 116.132813 71.085938 128.890625 68.675781 139.269531 68.675781 C 144.832031 68.675781 154.074219 68.476563 157.199219 68.300781 C 159.519531 68.152344 161.261719 67.800781 162.386719 66.6875 C 163.566406 65.527344 163.925781 64.332031 164.199219 62.792969 C 164.519531 60.925781 164.519531 59.019531 164.519531 55.78125 L 164.519531 44.773438 L 116.40625 44.773438 L 116.40625 63.835938 L 98.199219 56.914063 L 98.199219 52.347656 L 106.914063 52.347656 L 106.914063 44.773438 L 74.453125 44.773438 L 74.453125 28.941406 L 63.382813 28.941406 C 57.464844 28.941406 50.644531 33.089844 50.164063 41.125 C 49.707031 48.824219 53.175781 55.316406 61.101563 55.316406 L 62.527344 55.316406 L 62.527344 64.542969 L 61.101563 64.542969 C 47.210938 64.542969 36.738281 54.105469 36.738281 40.246094 C 36.738281 25.816406 49.03125 14.820313 63.894531 14.820313 L 87.363281 14.820313 L 87.363281 30.652344 L 178.636719 30.652344 L 178.636719 54.039063 C 178.636719 57.976563 178.433594 63.273438 178.039063 66.617188 C 177.769531 69.054688 176.902344 73.4375 172.292969 76.960938 C 169.519531 79.082031 165.324219 79.9375 158.515625 79.957031 C 156.292969 79.96875 149.816406 79.867188 142.058594 79.382813 C 131.664063 78.730469 128.710938 82.738281 128.296875 86.464844 C 128.207031 87.253906 128.210938 88.023438 128.296875 88.746094 C 133.15625 84.976563 140.054688 82.316406 147.878906 84.785156 C 161.652344 89.113281 165.585938 89.5 172.761719 83.867188 L 173.480469 85.480469 C 172.703125 86.671875 171.328125 88.394531 169.316406 89.917969 L 175.96875 89.917969 L 175.96875 125.964844 L 196.679688 113.546875 L 254.804688 113.546875 C 254.804688 113.546875 279.371094 126.382813 283.417969 128.507813 C 286.988281 130.382813 288.386719 132.644531 288.941406 135.980469 C 289.40625 138.757813 288.6875 142.285156 287.320313 144.546875 C 286.460938 145.949219 279.796875 156.902344 276.257813 162.746094 C 286.140625 173.445313 292.816406 188.402344 292.816406 205.0625 C 292.816406 220.167969 287.226563 239.648438 269.089844 254.132813 C 277.0625 256.730469 282.171875 261.085938 286.191406 266.804688 L 280.554688 286.003906 "/>
<path style=" stroke:none;fill-rule:nonzero;fill:rgb(100%,100%,100%);fill-opacity:1;" d="M 156.648438 363.324219 L 145.652344 363.324219 L 145.652344 331.824219 L 156.144531 331.824219 C 170.570313 331.824219 176.109375 336.121094 176.109375 346.9375 C 176.109375 358.628906 168.882813 363.324219 156.648438 363.324219 M 155.777344 300.8125 C 164.492188 300.8125 170.414063 302.707031 170.414063 312.023438 C 170.414063 321.957031 162.484375 324.683594 153.441406 324.683594 L 145.652344 324.683594 L 145.652344 300.8125 Z M 173.316406 327.382813 C 181.125 326.109375 188.589844 320.03125 188.589844 310.847656 C 188.589844 302.566406 185.070313 293.472656 160.695313 293.472656 L 119.550781 293.472656 L 119.550781 294.128906 C 120.808594 294.507813 122.765625 295.515625 124.0625 296.792969 C 126.855469 299.527344 127.773438 303.597656 127.90625 309.019531 L 127.90625 370.621094 L 161.996094 370.621094 C 180.746094 370.621094 194.3125 363.464844 194.3125 347.082031 C 194.3125 333.742188 183.949219 328.078125 173.316406 327.382813 "/>
<path style=" stroke:none;fill-rule:nonzero;fill:rgb(100%,100%,100%);fill-opacity:1;" d="M 57.527344 300.8125 L 69.523438 300.8125 C 79.523438 300.8125 84.742188 303.730469 84.742188 314.355469 C 84.742188 323.835938 77.917969 329.449219 66.976563 329.449219 L 57.527344 329.449219 Z M 89.207031 370.613281 L 111.414063 370.613281 L 83.03125 334.332031 C 94.40625 331.292969 102.925781 325.066406 102.925781 313.753906 C 102.925781 300.476563 94.992188 293.472656 74.222656 293.472656 L 31.300781 293.472656 L 31.300781 294.128906 C 32.882813 294.683594 34.644531 295.703125 35.808594 296.851563 C 38.816406 299.808594 39.710938 304.332031 39.710938 310.445313 L 39.710938 370.613281 L 57.527344 370.613281 L 57.527344 336.414063 L 64.035156 336.414063 L 89.207031 370.613281 "/>
<path style=" stroke:none;fill-rule:nonzero;fill:rgb(100%,100%,100%);fill-opacity:1;" d="M 266.371094 304.03125 C 271.144531 306.730469 272.585938 310.261719 272.613281 310.296875 C 272.839844 310.5625 273.355469 310.484375 273.355469 310.484375 L 277.238281 297.28125 C 277.238281 297.28125 270.277344 292.28125 253.695313 292.28125 C 228.625 292.28125 209.859375 304.914063 209.859375 332.566406 C 209.859375 363.722656 232.210938 371.808594 251.929688 371.808594 C 270.277344 371.808594 277.480469 365.960938 277.480469 365.960938 L 277.480469 356.925781 C 277.480469 356.925781 271 362.96875 257.101563 362.96875 C 245.625 362.96875 228.789063 357.734375 228.425781 332.121094 C 228.082031 308.476563 238.398438 300.761719 252.207031 300.761719 C 259.910156 300.761719 263.753906 302.5625 266.371094 304.03125 "/>
<g clip-path="url(#clip2)" clip-rule="nonzero">
<path style=" stroke:none;fill-rule:nonzero;fill:rgb(0%,19.999695%,63.136292%);fill-opacity:1;" d="M 332.289063 376.222656 C 333.933594 376.222656 335.394531 376.097656 335.394531 374.140625 C 335.394531 372.554688 333.953125 372.261719 332.609375 372.261719 L 329.972656 372.261719 L 329.972656 376.222656 Z M 329.972656 383.414063 L 328.027344 383.414063 L 328.027344 370.613281 L 332.902344 370.613281 C 335.929688 370.613281 337.417969 371.730469 337.417969 374.257813 C 337.417969 376.539063 335.984375 377.53125 334.121094 377.765625 L 337.746094 383.414063 L 335.574219 383.414063 L 332.199219 377.859375 L 329.972656 377.859375 Z M 332.320313 386.246094 C 337.335938 386.246094 341.296875 382.324219 341.296875 376.980469 C 341.296875 371.730469 337.335938 367.765625 332.320313 367.765625 C 327.242188 367.765625 323.28125 371.730469 323.28125 376.980469 C 323.28125 382.324219 327.242188 386.246094 332.320313 386.246094 M 321.046875 376.980469 C 321.046875 370.613281 326.214844 365.910156 332.320313 365.910156 C 338.363281 365.910156 343.519531 370.613281 343.519531 376.980469 C 343.519531 383.414063 338.363281 388.105469 332.320313 388.105469 C 326.214844 388.105469 321.046875 383.414063 321.046875 376.980469 "/>
</g>
</g>
</svg>
